<svg xmlns="http://www.w3.org/2000/svg" viewBox="0 0 64 64">
  <rect width="64" height="64" rx="14" fill="#0F172A"/>
  <circle cx="32" cy="32" r="22" fill="none" stroke="#fff" stroke-width="2.5"/>
  <g fill="#fff">
    <circle cx="34" cy="22" r="3"/>
    <path d="M33 25.5c1.4 0 2.4 1 2.6 2.3l1 5.2 3 2.7c.7.6.8 1.7.2 2.4-.6.7-1.7.8-2.4.2l-3-2.8c-.4-.3-.6-.8-.7-1.2l-.3-1.7-1.9 4.4 1.9 6.6c.3.9-.3 1.8-1.1 2.1-.9.3-1.8-.3-2.1-1.1l-2.1-7.2c-.2-.5-.1-1 .1-1.5l1.5-3.5-2.4 1.4-1.2 2.9c-.4.9-1.3 1.2-2.2.9-.9-.4-1.2-1.3-.9-2.2l1.4-3.3c.2-.4.5-.8 1-1l4-2.4c.6-.4 1.2-.6 1.6-.6z"/>
  </g>
  <g fill="#fff" opacity="0.8">
    <ellipse cx="22" cy="45" rx="1.8" ry="2.6" transform="rotate(20 22 45)"/>
    <ellipse cx="27" cy="48" rx="1.8" ry="2.6" transform="rotate(20 27 48)"/>
  </g>
</svg>
